<?xml version="1.0" encoding="UTF-8"?>
<svg version="1.1" xmlns="http://www.w3.org/2000/svg" width="500" height="500">
<path d="M0 0 C165 0 330 0 500 0 C500 165 500 330 500 500 C335 500 170 500 0 500 C0 335 0 170 0 0 Z " fill="#FEFEFE" transform="translate(0,0)"/>
<path d="M0 0 C1.92295898 -0.00386719 1.92295898 -0.00386719 3.88476562 -0.0078125 C4.88672974 -0.00152832 4.88672974 -0.00152832 5.90893555 0.00488281 C7.9034597 0.01542444 9.8980612 0.00401854 11.89257812 -0.0078125 C23.19788555 0.01471925 34.03805439 0.7509438 44.50390625 5.265625 C44.67424138 8.16132219 44.51872931 10.22263812 43.56640625 12.984375 C42.41350966 16.54479095 41.8685672 19.93319211 41.37890625 23.640625 C41.21132812 24.88585937 41.04375 26.13109375 40.87109375 27.4140625 C40.74992188 28.35507813 40.62875 29.29609375 40.50390625 30.265625 C41.22191406 30.40484375 41.93992188 30.5440625 42.6796875 30.6875 C55.2626373 33.26326289 65.21366185 38.15868058 75.77075195 45.31884766 C79.31569538 47.72925344 79.31569538 47.72925344 83.50390625 48.265625 C84.89170644 46.92231874 84.89170644 46.92231874 86.09765625 45.08984375 C86.80728516 44.09500977 86.80728516 44.09500977 87.53125 43.08007812 C88.01722656 42.37818359 88.50320312 41.67628906 89.00390625 40.953125 C89.97033119 39.58039143 90.93900909 38.20924063 91.91015625 36.83984375 C92.33619141 36.22713623 92.76222656 35.61442871 93.20117188 34.9831543 C94.51540593 33.25046378 95.93224301 31.76530148 97.50390625 30.265625 C102.71659895 31.7777038 105.93456012 35.10202294 109.75390625 38.765625 C110.41849854 39.39710449 111.08309082 40.02858398 111.76782227 40.67919922 C120.31842296 48.87486932 129.13527777 57.55976354 134.50390625 68.265625 C134.35253906 70.24267578 134.35253906 70.24267578 133.50390625 72.265625 C131.67236328 73.81445312 131.67236328 73.81445312 129.26171875 75.296875 C128.37000977 75.8539917 127.47830078 76.4111084 126.55957031 76.98510742 C125.59245117 77.57267822 124.62533203 78.16024902 123.62890625 78.765625 C122.63600586 79.38219971 121.64310547 79.99877441 120.62011719 80.6340332 C118.57208533 81.90580546 116.52127577 83.173115 114.46777344 84.43603516 C110.98431413 86.58636828 107.52851142 88.77779915 104.07519531 90.97607422 C96.30775254 95.91854674 88.48022988 100.756667 80.60009766 105.51733398 C76.00139258 108.30619611 71.53885506 111.21064276 67.23046875 114.4375 C65.50390625 115.265625 65.50390625 115.265625 63.4296875 115.12109375 C61.03559048 114.05759021 60.42853114 113.04771868 59.06640625 110.828125 C51.61810795 100.43037525 40.31713561 94.41849423 28.50390625 90.265625 C27.45074219 89.89308594 26.39757812 89.52054687 25.3125 89.13671875 C11.6014747 86.00076117 -3.9261611 86.8914527 -16.49609375 93.265625 C-17.52605469 93.76191406 -18.55601562 94.25820312 -19.6171875 94.76953125 C-33.80785553 102.27160416 -43.30126359 114.11902248 -48.875 128.9296875 C-54.02148988 145.96510697 -51.90908581 161.79541631 -44.62109375 177.765625 C-37.09008713 191.28514291 -25.84540298 200.74665991 -11.49609375 206.265625 C-10.13484375 206.8225 -10.13484375 206.8225 -8.74609375 207.390625 C-4.01641264 208.66400068 0.62380112 208.99519096 5.50390625 209.265625 C6.56867188 209.34296875 7.6334375 209.4203125 8.73046875 209.5 C24.09779635 210.13588942 39.38703645 205.15925557 51.02636719 194.92724609 C53.98827842 192.16478692 56.78246845 189.26350682 59.50390625 186.265625 C63.70038928 188.02375255 66.95511859 190.91239839 70.44140625 193.765625 C71.7817077 194.85130367 73.12286972 195.93592069 74.46484375 197.01953125 C75.13870117 197.56367676 75.81255859 198.10782227 76.50683594 198.66845703 C80.48609708 201.85089302 84.54627614 204.92719592 88.6015625 208.01171875 C90.68746126 209.63158899 92.65872759 211.27218453 94.640625 213.0078125 C98.0181338 215.67111412 100.29284818 215.86071557 104.50390625 216.265625 C105.16390625 216.925625 105.82390625 217.585625 106.50390625 218.265625 C106.18383742 221.76455922 104.56776815 223.66290704 102.25390625 226.203125 C101.61582031 226.904375 100.97773438 227.605625 100.3203125 228.328125 C93.06539419 236.06670453 85.31347227 243.32874355 76.50390625 249.265625 C76.79182731 254.73612517 79.17717137 258.39642649 82.03125 262.8984375 C84.44252647 266.77438854 85.50390625 268.57830038 85.50390625 273.265625 C78.31631085 279.05455319 69.14185208 282.30404357 60.50390625 285.265625 C59.76124512 285.52794922 59.01858398 285.79027344 58.25341797 286.06054688 C55.80196617 286.92091456 53.34239812 287.75291709 50.87890625 288.578125 C50.11570068 288.8450415 49.35249512 289.11195801 48.56616211 289.38696289 C42.47627465 291.36106081 36.8762107 291.55554762 30.50390625 291.265625 C30.42873779 290.56179688 30.35356934 289.85796875 30.27612305 289.1328125 C28.33561125 270.93449595 28.33561125 270.93449595 25.15234375 252.92578125 C24.29062697 248.06175341 23.8925453 243.18708712 23.50390625 238.265625 C22.76342041 238.27086182 22.02293457 238.27609863 21.26000977 238.28149414 C17.86215077 238.30245057 14.46430544 238.31534408 11.06640625 238.328125 C9.90173828 238.33650391 8.73707031 238.34488281 7.53710938 238.35351562 C1.10064423 238.37164651 -5.1167525 238.13212376 -11.49609375 237.265625 C-11.59921875 238.4 -11.70234375 239.534375 -11.80859375 240.703125 C-12.29818153 244.67578015 -13.39422003 248.18547542 -14.73046875 251.9453125 C-15.95318984 255.65090601 -16.72813257 259.4438888 -17.49609375 263.265625 C-31.43009528 264.44647259 -45.59438505 256.47935893 -56.55859375 248.390625 C-59.19151532 246.48595833 -60.45325816 245.88073585 -63.49609375 245.265625 C-63.72683594 245.77609375 -63.95757812 246.2865625 -64.1953125 246.8125 C-66.00016136 250.21623899 -68.12226916 253.3472253 -70.30859375 256.515625 C-70.73462891 257.1653125 -71.16066406 257.815 -71.59960938 258.484375 C-74.76163799 263.0384616 -74.76163799 263.0384616 -77.93359375 264.01953125 C-81.65487322 262.9247036 -83.98154483 260.6087539 -86.68359375 257.953125 C-87.25384277 257.40696533 -87.8240918 256.86080566 -88.41162109 256.2980957 C-98.27687774 246.74898008 -106.56818765 236.43402504 -114.49609375 225.265625 C-112.30461059 220.38320437 -109.10909425 218.26734624 -104.1015625 216.34765625 C-101.90975797 215.61245252 -99.71431429 214.91630303 -97.49609375 214.265625 C-95.84281206 209.41723711 -97.50008999 206.24763946 -99.62109375 201.890625 C-104.86831268 190.55236694 -109.74439636 178.92905802 -109.49609375 166.265625 C-110.06529541 166.32621094 -110.63449707 166.38679687 -111.22094727 166.44921875 C-113.8331154 166.7251053 -116.44583386 166.99540245 -119.05859375 167.265625 C-119.95384766 167.36101562 -120.84910156 167.45640625 -121.77148438 167.5546875 C-126.70381742 168.06056781 -131.53727965 168.47862104 -136.49609375 168.265625 C-139.27844613 165.48327262 -137.74228438 156.44413603 -137.74609375 152.390625 C-137.74710083 151.6614386 -137.74810791 150.9322522 -137.74914551 150.18096924 C-137.72012161 119.22015302 -129.567373 85.04703662 -108.49609375 61.265625 C-103.20040622 61.6745584 -99.91516923 64.62988679 -95.87109375 67.765625 C-94.54821172 68.77949405 -93.22278743 69.79005682 -91.89453125 70.796875 C-91.31364746 71.24611328 -90.73276367 71.69535156 -90.13427734 72.15820312 C-88.37210704 73.45657773 -88.37210704 73.45657773 -85.49609375 74.265625 C-85.274375 73.73066406 -85.05265625 73.19570312 -84.82421875 72.64453125 C-80.09182264 64.16797468 -71.61703655 57.02142261 -64.12109375 51.015625 C-63.55100586 50.55019287 -62.98091797 50.08476074 -62.39355469 49.60522461 C-58.8168636 46.8380447 -56.00532703 45.61982459 -51.49609375 45.265625 C-47.92168984 50.50537619 -44.4744831 55.81985529 -41.12109375 61.203125 C-40.43273437 62.30527344 -39.744375 63.40742188 -39.03515625 64.54296875 C-37.49609375 67.265625 -37.49609375 67.265625 -37.49609375 69.265625 C-36.44550781 68.72292969 -35.39492187 68.18023437 -34.3125 67.62109375 C-24.48223645 62.58999485 -15.61864309 58.27676585 -4.49609375 57.265625 C-4.80479174 48.49860206 -5.96993407 40.07782812 -7.49609375 31.453125 C-9.2139921 21.70817848 -10.22742613 12.15259343 -10.49609375 2.265625 C-6.967993 0.08899921 -4.10139173 0.0080234 0 0 Z " fill="#030302" transform="translate(157.49609375,102.734375)"/>
<path d="M0 0 C17 0 17 0 23 4 C25.49005677 6.49005677 25.29703766 7.37470732 25.3125 10.8125 C25.22761545 15.01428533 24.78894269 17.69458644 22 21 C21.01 21.66 20.02 22.32 19 23 C20.47485346 27.19945116 22.59485047 30.53737389 25.125 34.1875 C29 39.77935943 29 39.77935943 29 42 C26.375 42.5625 26.375 42.5625 23 42 C19.96144872 38.64160122 17.88044894 34.61550265 15.72265625 30.65625 C15.31917969 29.9446875 14.91570312 29.233125 14.5 28.5 C14.1596875 27.8503125 13.819375 27.200625 13.46875 26.53125 C11.64704502 24.32650016 11.64704502 24.32650016 6 24 C6 29.94 6 35.88 6 42 C4.02 42 2.04 42 0 42 C0 28.14 0 14.28 0 0 Z " fill="#181818" transform="translate(153,230)"/>
<path d="M0 0 C3.72390159 1.61687351 6.94858529 3.39215478 9.203125 6.83984375 C11.13944251 12.08878288 10.78897135 18.70522328 8.875 23.9375 C6.55570737 27.72567796 5.07665968 29.18006264 1 31 C-4.32596822 31.82900533 -8.47373778 32.04930528 -13 28.9375 C-17.11337091 22.89598648 -18.68519477 18.19454504 -18 11 C-14.98772738 2.46522757 -8.89797006 -1.89063108 0 0 Z " fill="#171717" transform="translate(371,241)"/>
<path d="M0 0 C16.85294118 0 16.85294118 0 23.9375 5.125 C26.79716354 9.11119767 26.77992676 12.24244677 26 17 C24.15866581 21.60333548 21.21966689 23.53852765 17 26 C14.24921116 26.91692961 12.64051087 27.10886083 9.8125 27.0625 C7.9253125 27.0315625 7.9253125 27.0315625 6 27 C6 31.95 6 36.9 6 42 C4.02 42 2.04 42 0 42 C0 28.14 0 14.28 0 0 Z " fill="#1B1B1B" transform="translate(304,230)"/>
<path d="M0 0 C0.66 0 1.32 0 2 0 C4.50717703 14.41626794 4.50717703 14.41626794 1.25 20 C-3.003167 23.78059289 -6.54445398 24.29423594 -12.07421875 24.65625 C-13.02748047 24.82640625 -13.02748047 24.82640625 -14 25 C-14.33 25.66 -14.66 26.32 -15 27 C-13.44539062 26.94779297 -13.44539062 26.94779297 -11.859375 26.89453125 C-10.48959958 26.86638518 -9.11980659 26.83908589 -7.75 26.8125 C-7.06808594 26.78736328 -6.38617188 26.76222656 -5.68359375 26.73632812 C-2.57016334 26.69098691 -0.33570188 26.82680349 2.453125 28.265625 C4.60719509 30.6807945 4.55605254 32.9192122 4.3828125 36.06640625 C3.77823731 39.12012787 2.53394645 40.26624717 0 42 C-5.24491105 44.62245552 -10.39048845 44.14782084 -16 43 C-18.3046875 41.953125 -18.3046875 41.953125 -20 41 C-19.34 39.68 -18.68 38.36 -18 37 C-17.10796875 37.08378906 -16.2159375 37.16757812 -15.296875 37.25390625 C-14.12640625 37.35574219 -12.9559375 37.45757812 -11.75 37.5625 C-10.58984375 37.66691406 -9.4296875 37.77132812 -8.234375 37.87890625 C-5.48128523 37.98198087 -3.580018 37.86213473 -1 37 C-1.66 35.35 -2.32 33.7 -3 32 C-3.98742187 32.02320313 -4.97484375 32.04640625 -5.9921875 32.0703125 C-7.27351562 32.08835937 -8.55484375 32.10640625 -9.875 32.125 C-11.15117187 32.14820313 -12.42734375 32.17140625 -13.7421875 32.1953125 C-17 32 -17 32 -19 30 C-19.3125 27.5625 -19.3125 27.5625 -19 25 C-17.5 23.1875 -17.5 23.1875 -16 22 C-16.66 21.38125 -17.32 20.7625 -18 20.125 C-20.81494439 15.72664939 -21.01384332 12.08543809 -20 7 C-18.61072622 3.92418424 -17.08619577 2.37835434 -14 1 C-10.51582097 0.65325317 -7.2248269 0.68534896 -3.73046875 0.88671875 C-2.82941406 0.92410156 -1.92835938 0.96148437 -1 1 C-0.67 0.67 -0.34 0.34 0 0 Z " fill="#181818" transform="translate(253,240)"/>
<path d="M0 0 C3.375 1.8125 3.375 1.8125 6 4 C6.8971875 4.7425 6.8971875 4.7425 7.8125 5.5 C10.49383679 8.88695173 10.33603861 13.4669501 10.28125 17.6171875 C9.68922791 22.63293025 7.5332284 26.51323306 3.9375 30 C-0.71126156 31.58255713 -5.15431336 31.77968191 -10 31 C-13.92241415 28.19827561 -15.49417453 25.49117379 -17 21 C-17.265625 18.28125 -17.265625 18.28125 -17.25 15.5 C-17.25515625 14.5821875 -17.2603125 13.664375 -17.265625 12.71875 C-16.8195641 8.15318549 -15.52181344 5.57272207 -12.4375 2.1875 C-8.57427793 -0.79728772 -4.68970023 -0.92449288 0 0 Z " fill="#161616" transform="translate(450,241)"/>
<path d="M0 0 C1.3479743 0.63654342 2.68596724 1.29605388 4 2 C6.79564735 1.61412603 6.79564735 1.61412603 9 0 C14.28190335 -0.35212689 17.74230495 -0.5063371 22 3 C24.07496306 6.25303577 24.23591302 8.82417574 24.1953125 12.640625 C24.18886719 13.71054688 24.18242187 14.78046875 24.17578125 15.8828125 C24.15902344 16.99398438 24.14226562 18.10515625 24.125 19.25 C24.11597656 20.37664062 24.10695313 21.50328125 24.09765625 22.6640625 C24.07410658 25.44292365 24.0412168 28.2213539 24 31 C22.02 31 20.04 31 18 31 C18 23.08 18 15.16 18 7 C15.03 6.67 12.06 6.34 9 6 C6.43863779 8.56136221 6.70333143 9.66561331 6.5859375 13.2265625 C6.54726563 14.2578125 6.50859375 15.2890625 6.46875 16.3515625 C6.4378125 17.43179687 6.406875 18.51203125 6.375 19.625 C6.33632813 20.71296875 6.29765625 21.8009375 6.2578125 22.921875 C6.16333753 25.61441165 6.07777569 28.30693757 6 31 C4.35 31 2.7 31 1 31 C1 23.08 1 15.16 1 7 C-1.97 6.67 -4.94 6.34 -8 6 C-10.56136221 8.56136221 -10.29666857 9.66561331 -10.4140625 13.2265625 C-10.45273437 14.2578125 -10.49140625 15.2890625 -10.53125 16.3515625 C-10.57765625 17.97191406 -10.57765625 17.97191406 -10.625 19.625 C-10.66367187 20.71296875 -10.70234375 21.8009375 -10.7421875 22.921875 C-10.83666247 25.61441165 -10.92222431 28.30693757 -11 31 C-12.98 31 -14.96 31 -17 31 C-17 21.1 -17 11.2 -17 1 C-15.35 1 -13.7 1 -12 1 C-12 1.66 -12 2.32 -12 3 C-11.505 2.505 -11.01 2.01 -10.5 1.5 C-7.00667078 -0.59599753 -3.98675337 -0.51069981 0 0 Z " fill="#121212" transform="translate(403,241)"/>
<path d="M0 0 C3.64414514 1.06095365 6.13990425 2.43492626 8.16015625 5.62890625 C8.90999185 10.08475563 8.72406006 14.43919879 8.53515625 18.94140625 C8.50808594 20.15892578 8.48101562 21.37644531 8.453125 22.63085938 C8.38250966 25.63201123 8.28392597 28.62955337 8.16015625 31.62890625 C6.51015625 31.62890625 4.86015625 31.62890625 3.16015625 31.62890625 C3.16015625 23.70890625 3.16015625 15.78890625 3.16015625 7.62890625 C-0.36043943 6.45537436 -3.14633675 6.42744223 -6.83984375 6.62890625 C-9.40120596 9.19026846 -9.13651232 10.29451956 -9.25390625 13.85546875 C-9.29257813 14.88671875 -9.33125 15.91796875 -9.37109375 16.98046875 C-9.4175 18.60082031 -9.4175 18.60082031 -9.46484375 20.25390625 C-9.50351563 21.341875 -9.5421875 22.42984375 -9.58203125 23.55078125 C-9.67650622 26.2433179 -9.76206806 28.93584382 -9.83984375 31.62890625 C-11.48984375 31.62890625 -13.13984375 31.62890625 -14.83984375 31.62890625 C-14.83984375 21.72890625 -14.83984375 11.82890625 -14.83984375 1.62890625 C-13.51984375 1.62890625 -12.19984375 1.62890625 -10.83984375 1.62890625 C-10.83984375 2.61890625 -10.83984375 3.60890625 -10.83984375 4.62890625 C-10.17984375 3.96890625 -9.51984375 3.30890625 -8.83984375 2.62890625 C-5.73237504 0.55726044 -3.70826799 0.12944673 0 0 Z " fill="#171717" transform="translate(217.83984375,240.37109375)"/>
<path d="M0 0 C2.28125 1.0234375 2.28125 1.0234375 4 2 C4 3.65 4 5.3 4 7 C0.7 6.67 -2.6 6.34 -6 6 C-6 7.65 -6 9.3 -6 11 C-4.82630859 11.61488281 -4.82630859 11.61488281 -3.62890625 12.2421875 C-2.11103516 13.05042969 -2.11103516 13.05042969 -0.5625 13.875 C0.44683594 14.40867188 1.45617187 14.94234375 2.49609375 15.4921875 C5 17 5 17 6 19 C6.58121432 26.2070576 6.58121432 26.2070576 4.359375 29.23828125 C1.34849137 31.48647416 -0.34408352 31.44612339 -4.0625 31.3125 C-5.62677734 31.27576172 -5.62677734 31.27576172 -7.22265625 31.23828125 C-10 31 -10 31 -13 30 C-13 28.35 -13 26.7 -13 25 C-9.21293268 25 -5.73486879 25.4254048 -2 26 C-1.34 24.02 -0.68 22.04 0 20 C-0.70125 19.7525 -1.4025 19.505 -2.125 19.25 C-6.71045347 17.25632458 -10.20658691 15.19011964 -13 11 C-13.41467826 7.19878263 -13.52577308 4.89152827 -11.5625 1.5625 C-7.82455691 -0.71673359 -4.27732125 -0.64762258 0 0 Z " fill="#181818" transform="translate(477,241)"/>
<path d="M0 0 C3 1 3 1 5 2 C4.67 3.32 4.34 4.64 4 6 C0.7 6 -2.6 6 -6 6 C-5.83786076 8.42048293 -5.83786076 8.42048293 -5 11 C-3.05257217 12.56882088 -3.05257217 12.56882088 -0.625 13.625 C2.4165623 15.10119799 4.86825819 16.32696952 7 19 C7.5625 22.375 7.5625 22.375 7 26 C4.8627509 28.79029744 4.11383148 29.72355805 1 31 C-3.57421639 31.51817295 -8.78887917 32.10556041 -13 30 C-12.67 28.35 -12.34 26.7 -12 25 C-8.37 25.33 -4.74 25.66 -1 26 C-0.67 24.35 -0.34 22.7 0 21 C-0.77085937 20.52949219 -1.54171875 20.05898438 -2.3359375 19.57421875 C-3.33882813 18.95160156 -4.34171875 18.32898438 -5.375 17.6875 C-6.37273437 17.07261719 -7.37046875 16.45773437 -8.3984375 15.82421875 C-11 14 -11 14 -13 11 C-13.60839155 7.00199836 -13.33251303 5.47798748 -11 2.125 C-7.14717009 -0.60408785 -4.57484015 -0.72865398 0 0 Z " fill="#191919" transform="translate(274,241)"/>
<path d="M0 0 C2.9247816 0.87971946 4.1585092 2.18536468 6 4.6015625 C6.49609375 7.44140625 6.49609375 7.44140625 6.4375 10.5390625 C6.43621094 11.55871094 6.43492187 12.57835937 6.43359375 13.62890625 C5.94654064 16.96807216 4.98211395 18.8925119 3 21.6015625 C0.12529507 23.03891496 -1.81894588 22.98328899 -5 22.6015625 C-8.47209955 19.03562243 -10.15318744 16.28186697 -10.3125 11.3515625 C-10.18127904 3.96740111 -7.51424533 -0.08805756 0 0 Z " fill="#F3F3F3" transform="translate(369,245.3984375)"/>
<path d="M0 0 C2.7335259 0.17619412 4.08997771 0.5144258 6.5625 1.8125 C9.01065987 6.19878643 8.79116318 10.60451533 8.0625 15.5 C6.85296234 18.29875081 5.22880425 20.33369575 3.0625 22.5 C0.25 22.875 0.25 22.875 -2.9375 22.5 C-5.70121418 19.81084646 -6.83701932 18.14639935 -7.43359375 14.30859375 C-7.41425781 13.19613281 -7.39492188 12.08367187 -7.375 10.9375 C-7.37371094 9.82246094 -7.37242187 8.70742187 -7.37109375 7.55859375 C-6.62150834 2.27097775 -5.32725754 0.67647715 0 0 Z " fill="#F5F5F5" transform="translate(445.9375,245.5)"/>
<path d="M0 0 C0.33 0.99 0.66 1.98 1 3 C0.67 3.66 0.34 4.32 0 5 C1.55460938 4.94779297 1.55460938 4.94779297 3.140625 4.89453125 C4.51040042 4.86638518 5.88019341 4.83908589 7.25 4.8125 C7.93191406 4.78736328 8.61382812 4.76222656 9.31640625 4.73632812 C12.42983666 4.69098691 14.66429812 4.82680349 17.453125 6.265625 C19.60719509 8.6807945 19.55605254 10.9192122 19.3828125 14.06640625 C18.77823731 17.12012787 17.53394645 18.26624717 15 20 C9.75508895 22.62245552 4.60951155 22.14782084 -1 21 C-3.3046875 19.953125 -3.3046875 19.953125 -5 19 C-4.34 17.68 -3.68 16.36 -3 15 C-2.10796875 15.08378906 -1.2159375 15.16757812 -0.296875 15.25390625 C0.87359375 15.35574219 2.0440625 15.45757812 3.25 15.5625 C4.99023438 15.71912109 4.99023438 15.71912109 6.765625 15.87890625 C9.51871477 15.98198087 11.419982 15.86213473 14 15 C13.34 13.35 12.68 11.7 12 10 C11.01257813 10.02320313 10.02515625 10.04640625 9.0078125 10.0703125 C7.72648438 10.08835937 6.44515625 10.10640625 5.125 10.125 C3.21074219 10.15980469 3.21074219 10.15980469 1.2578125 10.1953125 C-2 10 -2 10 -4 8 C-4.375 5.5625 -4.375 5.5625 -4 3 C-2 1.1875 -2 1.1875 0 0 Z " fill="#161616" transform="translate(238,262)"/>
<path d="M0 0 C-0.875 3.875 -0.875 3.875 -2 5 C-3.11375 5.12375 -4.2275 5.2475 -5.375 5.375 C-9.47937458 6.06145334 -9.47937458 6.06145334 -12 9 C-12.50330762 11.41063442 -12.50330762 11.41063442 -12.51171875 14.10546875 C-12.56489258 15.57983398 -12.56489258 15.57983398 -12.61914062 17.08398438 C-12.65297852 18.62022461 -12.65297852 18.62022461 -12.6875 20.1875 C-12.72166016 21.22326172 -12.75582031 22.25902344 -12.79101562 23.32617188 C-12.87352642 25.8840066 -12.94266572 28.44149723 -13 31 C-14.65 31 -16.3 31 -18 31 C-18 21.1 -18 11.2 -18 1 C-16.35 1 -14.7 1 -13 1 C-13 1.99 -13 2.98 -13 4 C-12.34 4 -11.68 4 -11 4 C-10.67 3.01 -10.34 2.02 -10 1 C-6.52674819 -0.1577506 -3.63932552 -0.06866652 0 0 Z " fill="#0A0A0A" transform="translate(352,241)"/>
<path d="M0 0 C8.08978328 -0.48297214 8.08978328 -0.48297214 12.0625 1.625 C14 4 14 4 14.5 7 C13.95698679 10.25807925 13.31873852 11.68126148 11 14 C8.24921116 14.91692961 6.64051087 15.10886083 3.8125 15.0625 C1.9253125 15.0315625 1.9253125 15.0315625 0 15 C0 10.05 0 5.1 0 0 Z " fill="#F5F5F5" transform="translate(310,236)"/>
<path d="M0 0 C1.65 0 3.3 0 5 0 C5 0.66 5 1.32 5 2 C5.99 2.33 6.98 2.66 8 3 C7.67 3.33 7.34 3.66 7 4 C6.84193469 5.92478813 6.748865 7.8549921 6.68359375 9.78515625 C6.64169922 10.95498047 6.59980469 12.12480469 6.55664062 13.33007812 C6.51732422 14.56177734 6.47800781 15.79347656 6.4375 17.0625 C6.37272461 18.91584961 6.37272461 18.91584961 6.30664062 20.80664062 C6.20015802 23.87097335 6.09814576 26.93539073 6 30 C4.02 30 2.04 30 0 30 C0 20.1 0 10.2 0 0 Z " fill="#1F1F1F" transform="translate(386,242)"/>
<path d="M0 0 C8.08587944 -0.35672998 8.08587944 -0.35672998 11.5625 1 C13.51831868 3.72113904 13.57120525 5.82619217 13.37109375 9.125 C13 11 13 11 11.5625 13 C7.65036006 14.52668876 4.18295601 14.18454218 0 14 C0 9.38 0 4.76 0 0 Z " fill="#EEEEEE" transform="translate(159,235)"/>
<path d="M0 0 C2.97 0 5.94 0 9 0 C9 9.9 9 19.8 9 30 C7.35 30 5.7 30 4 30 C4 21.42 4 12.84 4 4 C2.68 4 1.36 4 0 4 C0 2.68 0 1.36 0 0 Z " fill="#111111" transform="translate(185,242)"/>
<path d="M0 0 C1.32 0 2.64 0 4 0 C4 0.99 4 1.98 4 3 C5.65 2.34 7.3 1.68 9 1 C7.125 5.875 7.125 5.875 6 7 C5.84259395 8.70563778 5.74906608 10.41727244 5.68359375 12.12890625 C5.64169922 13.16337891 5.59980469 14.19785156 5.55664062 15.26367188 C5.51732422 16.35228516 5.47800781 17.44089844 5.4375 18.5625 C5.37272461 20.2012207 5.37272461 20.2012207 5.30664062 21.87304688 C5.20017932 24.58189564 5.09816484 27.29083992 5 30 C3.35 30 1.7 30 0 30 C0 20.1 0 10.2 0 0 Z " fill="#0B0B0B" transform="translate(203,242)"/>
<path d="M0 0 C0.99 0.66 1.98 1.32 3 2 C3.56737589 9.14893617 3.56737589 9.14893617 1 13 C-2.39471203 13.37033222 -4.88907484 13.60921702 -7.9375 11.9375 C-9.6140629 8.88023824 -9.36528977 6.4093712 -9 3 C-6.83464775 -0.72921777 -4.01926187 -0.41867311 0 0 Z " fill="#EFEFEF" transform="translate(247,246)"/>
<path d="M0 0 C0.66 0.33 1.32 0.66 2 1 C-3.94 6.94 -9.88 12.88 -16 19 C-16.66 18.67 -17.32 18.34 -18 18 C-16.12973998 15.93302978 -14.25404816 13.87145703 -12.375 11.8125 C-11.59189453 10.9452832 -11.59189453 10.9452832 -10.79296875 10.06054688 C-7.41255947 6.36713674 -3.91565929 3.12194457 0 0 Z " fill="#2A2A2A" transform="translate(92,155)"/>
<path d="M0 0 C-0.875 3.875 -0.875 3.875 -2 5 C-4.33297433 5.04092937 -6.66705225 5.04241723 -9 5 C-9 4.34 -9 3.68 -9 3 C-9.66 2.67 -10.32 2.34 -11 2 C-7.36576791 -0.32590854 -4.22911669 -0.16265833 0 0 Z " fill="#282828" transform="translate(352,241)"/>
<path d="M0 0 C0.78375 0.04125 1.5675 0.0825 2.375 0.125 C2.5 2.5 2.5 2.5 2.375 5.125 C1.715 5.785 1.055 6.445 0.375 7.125 C-1.75 6.75 -1.75 6.75 -3.625 6.125 C-4.25 4.25 -4.25 4.25 -4.625 2.125 C-2.625 0.125 -2.625 0.125 0 0 Z " fill="#393939" transform="translate(192.625,229.875)"/>
<path d="M0 0 C-0.33 0.33 -0.66 0.66 -1 1 C-0.34 1.66 0.32 2.32 1 3 C-3.29 3 -7.58 3 -12 3 C-11.67 2.01 -11.34 1.02 -11 0 C-9.54263913 -0.19491452 -8.08405407 -0.38069358 -6.625 -0.5625 C-5.81289062 -0.66691406 -5.00078125 -0.77132813 -4.1640625 -0.87890625 C-2 -1 -2 -1 0 0 Z " fill="#C6C6C6" transform="translate(250,264)"/>
<path d="M0 0 C2.01822917 0.06510417 4.03645833 0.13020833 6.0546875 0.1953125 C6.0546875 0.5253125 6.0546875 0.8553125 6.0546875 1.1953125 C3.7446875 1.1953125 1.4346875 1.1953125 -0.9453125 1.1953125 C-1.2340625 2.1646875 -1.5228125 3.1340625 -1.8203125 4.1328125 C-2.9453125 7.1953125 -2.9453125 7.1953125 -4.9453125 8.1953125 C-3.92779658 0.39435709 -3.92779658 0.39435709 0 0 Z " fill="#424242" transform="translate(396.9453125,240.8046875)"/>
</svg>
