<?xml version="1.0" encoding="UTF-8"?>
<svg version="1.1" xmlns="http://www.w3.org/2000/svg" width="736" height="440" viewBox="0 0 736 440" style="background-color: transparent">
<path d="M0 0 C1.3500563 -0.010242 1.3500563 -0.010242 2.72738647 -0.02069092 C5.61939185 -0.03420249 8.5103725 -0.02173665 11.40234375 -0.00390625 C12.87575729 -0.00083969 12.87575729 -0.00083969 14.37893677 0.00228882 C55.63772961 0.14268077 55.63772961 0.14268077 63.33984375 7.43359375 C64.4344411 14.43901676 61.79956438 21.57396052 60.1171875 28.33984375 C58.87239069 33.5181985 58.04384991 38.10570471 58.33984375 43.43359375 C59.34402344 43.73652344 60.34820312 44.03945313 61.3828125 44.3515625 C80.32007897 50.12105577 97.89503717 57.29792516 113.921875 69.09765625 C116.20775111 70.65728214 116.20775111 70.65728214 118.56640625 70.22265625 C121.542178 68.89863446 122.95147779 67.09674694 124.58203125 64.3125 C126.84254833 60.61027536 129.3499358 57.1260429 131.90234375 53.62109375 C132.39669922 52.92822266 132.89105469 52.23535156 133.40039062 51.52148438 C134.66288264 49.78747979 135.99608306 48.10540869 137.33984375 46.43359375 C137.99984375 46.43359375 138.65984375 46.43359375 139.33984375 46.43359375 C139.33984375 45.77359375 139.33984375 45.11359375 139.33984375 44.43359375 C141.10546875 43.7890625 141.10546875 43.7890625 143.33984375 43.43359375 C145.26171875 44.359375 145.26171875 44.359375 147.08984375 45.74609375 C147.7034375 46.19597656 148.31703125 46.64585938 148.94921875 47.109375 C149.408125 47.54636719 149.86703125 47.98335937 150.33984375 48.43359375 C150.33984375 49.09359375 150.33984375 49.75359375 150.33984375 50.43359375 C150.90316406 50.67980469 151.46648437 50.92601562 152.046875 51.1796875 C161.95733495 56.59920649 171.54104542 67.44163467 178.33984375 76.43359375 C178.33984375 77.09359375 178.33984375 77.75359375 178.33984375 78.43359375 C178.99984375 78.43359375 179.65984375 78.43359375 180.33984375 78.43359375 C180.66984375 79.75359375 180.99984375 81.07359375 181.33984375 82.43359375 C181.99984375 82.43359375 182.65984375 82.43359375 183.33984375 82.43359375 C184.54492188 83.87060547 184.54492188 83.87060547 185.87109375 85.86328125 C186.35191406 86.57613281 186.83273437 87.28898437 187.328125 88.0234375 C187.82699219 88.77753906 188.32585937 89.53164062 188.83984375 90.30859375 C189.82759053 91.78638544 190.81709933 93.26300134 191.80859375 94.73828125 C192.24623047 95.39812012 192.68386719 96.05795898 193.13476562 96.73779297 C194.3677354 98.57268125 194.3677354 98.57268125 196.33984375 100.43359375 C196.83984375 103.29296875 196.83984375 103.29296875 196.33984375 106.43359375 C194.30791949 108.224227 192.65927902 109.380606 190.33984375 110.68359375 C189.70755859 111.06362549 189.07527344 111.44365723 188.42382812 111.83520508 C187.07912573 112.64331315 185.7293391 113.44301179 184.375 114.23486328 C181.15534647 116.13127629 178.00202372 118.13088511 174.83984375 120.12109375 C173.49884336 120.95726455 172.15769137 121.79319225 170.81640625 122.62890625 C165.59840451 125.89045341 160.40601301 129.19206044 155.21484375 132.49609375 C154.27213623 133.09574951 153.32942871 133.69540527 152.3581543 134.31323242 C148.29861922 136.8987 144.24301273 139.48905777 140.2109375 142.1171875 C134.21166336 146.02506688 128.17577855 149.68236343 121.8515625 153.04296875 C118.6602714 154.8098422 115.67079025 156.80372705 112.66015625 158.859375 C108.28875191 161.82515943 103.81625719 164.62990969 99.33984375 167.43359375 C98.64246094 167.88476562 97.94507813 168.3359375 97.2265625 168.80078125 C92.96774834 171.44544101 92.96774834 171.44544101 90.4765625 171.3984375 C87.1907322 169.91470791 85.29067274 167.25032887 83.08984375 164.49609375 C82.6309375 163.94501953 82.17203125 163.39394531 81.69921875 162.82617188 C78.33984375 158.71193731 78.33984375 158.71193731 78.33984375 156.43359375 C77.76363281 156.1809375 77.18742187 155.92828125 76.59375 155.66796875 C74.07329711 154.28761673 72.34378458 152.67664696 70.27734375 150.68359375 C65.40327516 146.25845253 60.20107017 143.35982637 54.33984375 140.43359375 C53.67339844 140.06492188 53.00695312 139.69625 52.3203125 139.31640625 C46.32539033 136.06021694 39.90246249 134.20982349 33.33984375 132.43359375 C32.50066406 132.20414063 31.66148437 131.9746875 30.796875 131.73828125 C8.1471832 126.6249963 -15.26813503 131.7479006 -35.234375 142.8671875 C-37.4773036 144.28864853 -39.56281212 145.80480522 -41.66015625 147.43359375 C-42.6140625 148.16320312 -43.56796875 148.8928125 -44.55078125 149.64453125 C-58.83380303 161.02070689 -69.54334795 175.78431294 -74.66015625 193.43359375 C-74.95792969 194.39523438 -75.25570312 195.356875 -75.5625 196.34765625 C-81.64042778 219.3709587 -77.82358819 243.66507696 -66.66015625 264.43359375 C-64.24597507 268.34062575 -61.589278 271.89996282 -58.66015625 275.43359375 C-57.64501953 276.69236328 -57.64501953 276.69236328 -56.609375 277.9765625 C-44.17909361 292.63384128 -28.21487794 301.69976091 -9.66015625 306.43359375 C-8.8403125 306.65917969 -8.02046875 306.88476562 -7.17578125 307.1171875 C17.555187 312.82736329 42.25388287 306.43304286 63.33984375 293.43359375 C64.28923828 292.85738281 64.28923828 292.85738281 65.2578125 292.26953125 C68.75705269 290.05664414 71.49052516 287.42190349 74.33984375 284.43359375 C76.15380702 282.64723427 77.97079764 280.86401145 79.7890625 279.08203125 C81.54236273 277.30976401 81.54236273 277.30976401 83.33984375 274.43359375 C85.59375 273.94140625 85.59375 273.94140625 88.33984375 274.43359375 C90.49580015 275.99347417 92.34054578 277.51256183 94.27734375 279.30859375 C98.71465212 283.24857387 103.20365158 286.87903765 108.08984375 290.24609375 C113.66563826 294.11821711 118.93074857 298.28423396 124.15234375 302.62109375 C124.88114746 303.2231665 125.60995117 303.82523926 126.36083984 304.44555664 C129.2844466 306.86716036 132.18659806 309.29814146 135.03125 311.8125 C139.80624851 315.90413557 143.56799137 317.33188241 149.859375 317.94921875 C152.70732661 318.50535418 154.1692413 319.55139302 156.33984375 321.43359375 C155.84442301 325.93233369 154.30550744 328.00351608 151.21484375 331.24609375 C150.39371094 332.12007813 149.57257813 332.9940625 148.7265625 333.89453125 C147.93894531 334.73242188 147.15132813 335.5703125 146.33984375 336.43359375 C145.23002897 337.74132133 144.12537483 339.05345646 143.02734375 340.37109375 C139.93058997 343.91854878 136.59073503 347.15988838 133.15234375 350.37109375 C132.64082764 350.85634521 132.12931152 351.34159668 131.60229492 351.84155273 C128.87828283 354.34016007 126.92098013 355.6515065 123.33984375 356.43359375 C123.00984375 357.42359375 122.67984375 358.41359375 122.33984375 359.43359375 C119.90625 361.40625 119.90625 361.40625 116.90234375 363.49609375 C112.93613973 366.24477506 112.93613973 366.24477506 109.33984375 369.43359375 C109.90767336 373.67288439 112.36986926 376.99967204 114.58984375 380.55859375 C120.02851877 389.48876385 120.02851877 389.48876385 122.46484375 394.05859375 C122.85929687 394.79335938 123.25375 395.528125 123.66015625 396.28515625 C124.56974286 399.16028635 124.42655727 400.61618832 123.33984375 403.43359375 C112.08968129 413.09341911 94.90518174 419.55531067 80.80859375 423.4609375 C78.0247158 424.24155193 75.30161729 425.0919092 72.55859375 426 C53.28243283 432.2852695 53.28243283 432.2852695 44.33984375 430.43359375 C41.39825761 428.09971991 40.44486127 426.2081938 39.93847656 422.47314453 C39.7427002 420.57024658 39.7427002 420.57024658 39.54296875 418.62890625 C39.38985338 417.17934032 39.23652297 415.72979709 39.08300781 414.28027344 C39.00280396 413.51082397 38.9226001 412.74137451 38.83996582 411.9486084 C37.3442167 397.65613787 35.59927007 383.41288445 33.58984375 369.18359375 C33.4772522 368.3861676 33.36466064 367.58874146 33.24865723 366.76715088 C32.61929027 362.32162789 31.9828055 357.87717385 31.33984375 353.43359375 C27.36700621 352.68460415 23.66839119 352.33033519 19.62890625 352.40625 C18.01918945 352.42655273 18.01918945 352.42655273 16.37695312 352.44726562 C15.25095703 352.46337891 14.12496094 352.47949219 12.96484375 352.49609375 C2.8757745 352.58059182 -6.70148989 352.00012554 -16.66015625 350.43359375 C-17.32015625 350.43359375 -17.98015625 350.43359375 -18.66015625 350.43359375 C-18.90765625 351.58859375 -19.15515625 352.74359375 -19.41015625 353.93359375 C-20.55495126 359.11787971 -21.87965689 364.25407773 -23.19384766 369.3972168 C-24.43477284 374.33126092 -25.41245583 379.262692 -26.16796875 384.296875 C-26.66015625 386.43359375 -26.66015625 386.43359375 -28.66015625 389.43359375 C-45.59459327 393.69196095 -68.32302667 378.19876813 -82.171875 370.046875 C-84.34868394 368.63553734 -86.19350173 367.18348765 -88.09765625 365.43359375 C-90.43699341 363.1685309 -90.43699341 363.1685309 -93.08203125 363.5078125 C-96.48129921 364.72845872 -97.45351831 366.27477286 -99.47265625 369.24609375 C-100.15199219 370.2309375 -100.83132812 371.21578125 -101.53125 372.23046875 C-102.23378906 373.2875 -102.93632812 374.34453125 -103.66015625 375.43359375 C-104.40096759 376.54301822 -105.14185319 377.6523931 -105.8828125 378.76171875 C-107.26270661 380.83531643 -108.63455862 382.91430176 -109.99609375 385 C-112.93302733 389.295093 -112.93302733 389.295093 -116.28515625 389.93359375 C-121.17627781 389.20898315 -123.94532633 386.54581266 -127.66015625 383.43359375 C-128.65015625 382.69109375 -129.64015625 381.94859375 -130.66015625 381.18359375 C-131.32015625 380.60609375 -131.98015625 380.02859375 -132.66015625 379.43359375 C-132.66015625 378.77359375 -132.66015625 378.11359375 -132.66015625 377.43359375 C-133.50320312 377.0778125 -133.50320312 377.0778125 -134.36328125 376.71484375 C-137.17909667 375.14411678 -139.13971041 373.21887911 -141.41015625 370.93359375 C-142.209375 370.13953125 -143.00859375 369.34546875 -143.83203125 368.52734375 C-145.66015625 366.43359375 -145.66015625 366.43359375 -145.66015625 364.43359375 C-146.32015625 364.43359375 -146.98015625 364.43359375 -147.66015625 364.43359375 C-149.60546875 362.31640625 -149.60546875 362.31640625 -151.78515625 359.55859375 C-152.50960937 358.65367187 -153.2340625 357.74875 -153.98046875 356.81640625 C-155.66015625 354.43359375 -155.66015625 354.43359375 -155.66015625 352.43359375 C-156.32015625 352.43359375 -156.98015625 352.43359375 -157.66015625 352.43359375 C-159.06469727 350.79711914 -159.06469727 350.79711914 -160.6640625 348.53125 C-161.23962891 347.72365234 -161.81519531 346.91605469 -162.40820312 346.08398438 C-163.30635742 344.80297852 -163.30635742 344.80297852 -164.22265625 343.49609375 C-165.41086577 341.81989229 -166.59963812 340.14408962 -167.7890625 338.46875 C-168.3157251 337.71988525 -168.8423877 336.97102051 -169.38500977 336.19946289 C-170.54144701 334.49920059 -170.54144701 334.49920059 -171.66015625 333.43359375 C-172 331.09375 -172 331.09375 -171.66015625 328.43359375 C-165.94482982 322.69440375 -158.02759765 319.49799429 -150.578125 316.6328125 C-148.90916222 315.96998614 -147.27960681 315.20958048 -145.66015625 314.43359375 C-144.3740401 311.60474328 -144.3740401 311.60474328 -145.35351562 309.49853516 C-145.73314453 308.76812012 -146.11277344 308.03770508 -146.50390625 307.28515625 C-146.92269043 306.4554834 -147.34147461 305.62581055 -147.77294922 304.77099609 C-148.4596167 303.42835693 -148.4596167 303.42835693 -149.16015625 302.05859375 C-157.34834892 285.42641721 -165.66015625 265.29192727 -165.66015625 246.43359375 C-169.57685056 246.74574793 -173.49350636 247.05838275 -177.41015625 247.37109375 C-178.50199219 247.45810547 -179.59382813 247.54511719 -180.71875 247.63476562 C-182.35263672 247.7652832 -182.35263672 247.7652832 -184.01953125 247.8984375 C-185.11458984 247.98335449 -186.20964844 248.06827148 -187.33789062 248.15576172 C-189.58100521 248.34334729 -191.82210269 248.55656252 -194.06054688 248.79345703 C-195.12982422 248.90286621 -196.19910156 249.01227539 -197.30078125 249.125 C-198.26016602 249.23142822 -199.21955078 249.33785645 -200.20800781 249.44750977 C-202.66015625 249.43359375 -202.66015625 249.43359375 -205.66015625 247.43359375 C-206.04110718 245.5500946 -206.04110718 245.5500946 -206.04833984 243.2253418 C-206.05779633 242.35229904 -206.06725281 241.47925629 -206.07699585 240.57975769 C-206.07092316 239.62789078 -206.06485046 238.67602386 -206.05859375 237.6953125 C-206.06146393 236.70473343 -206.06433411 235.71415436 -206.06729126 234.69355774 C-206.06933872 232.58093703 -206.0637615 230.46829766 -206.05126953 228.35571289 C-206.03554717 225.19956877 -206.05092401 222.04476999 -206.0703125 218.88867188 C-206.08356566 205.49434206 -204.96159823 192.62351395 -202.66015625 179.43359375 C-202.54021301 178.7277565 -202.42026978 178.02191925 -202.29669189 177.29469299 C-197.14686505 147.13446664 -184.45568997 113.36984417 -163.66015625 90.43359375 C-161.03857422 89.08349609 -161.03857422 89.08349609 -158.66015625 88.43359375 C-156.73046875 89.12890625 -156.73046875 89.12890625 -154.78515625 90.55859375 C-154.02074219 91.11289063 -153.25632813 91.6671875 -152.46875 92.23828125 C-148.23912887 95.54432725 -144.03640696 98.88446359 -139.88916016 102.29345703 C-139.27089355 102.7986084 -138.65262695 103.30375977 -138.015625 103.82421875 C-137.46543701 104.27829102 -136.91524902 104.73236328 -136.34838867 105.20019531 C-134.53636495 106.5240339 -132.69003142 107.48467624 -130.66015625 108.43359375 C-128.09475344 105.7279976 -125.53337047 103.01862725 -122.97265625 100.30859375 C-122.25142578 99.54804687 -121.53019531 98.7875 -120.78710938 98.00390625 C-117.74939656 94.78587258 -114.73431442 91.58863431 -111.953125 88.14453125 C-108.08553251 83.57194319 -103.34834374 80.12767373 -98.66015625 76.43359375 C-97.52796453 75.51255562 -96.39646942 74.59066059 -95.265625 73.66796875 C-94.12699434 72.75564577 -92.98768439 71.84416986 -91.84765625 70.93359375 C-91.32107422 70.50014648 -90.79449219 70.06669922 -90.25195312 69.62011719 C-86.80680159 66.9113505 -84.09420555 65.38520031 -79.66015625 65.43359375 C-76.5923889 68.04558067 -74.62414869 70.87664183 -72.63671875 74.35546875 C-72.09015625 75.2990625 -71.54359375 76.24265625 -70.98046875 77.21484375 C-70.42101562 78.19453125 -69.8615625 79.17421875 -69.28515625 80.18359375 C-65.42996178 86.92117661 -61.50443478 93.35578794 -56.66015625 99.43359375 C-52.06304207 98.01151555 -47.79425091 96.15004872 -43.47265625 94.05859375 C-32.36125024 88.81214374 -21.74250455 85.58591491 -9.66015625 83.43359375 C-10.32864462 75.0958943 -11.36159172 66.83495968 -12.5078125 58.55078125 C-12.77700335 56.5720365 -13.04618702 54.59329074 -13.31495571 52.6144886 C-13.97083705 47.790015 -14.63155984 42.96621412 -15.29711914 38.14306641 C-15.67284011 35.41874221 -16.04532962 32.6940118 -16.41441345 29.96878052 C-16.76002383 27.41819916 -17.11033666 24.86824913 -17.46607971 22.31906128 C-18.32317137 15.95628253 -18.8487305 9.85370949 -18.66015625 3.43359375 C-12.3198569 0.93891248 -6.79165813 -0.02231232 0 0 Z " fill="#010100" transform="translate(234.66015625,2.56640625)"/>
<path d="M0 0 C1.921875 1.09375 1.921875 1.09375 4.671875 3.09375 C5.105 2.619375 5.538125 2.145 5.984375 1.65625 C9.74337806 -1.82430839 14.80635466 -1.35548501 19.6484375 -1.3203125 C23.60418149 -0.77856978 25.54253171 0.57371057 28.3671875 3.29296875 C31.82098954 8.06004282 31.94456926 12.74742788 31.8671875 18.45703125 C31.8643576 19.24901413 31.86152771 20.04099701 31.85861206 20.85697937 C31.84746363 23.37355999 31.82236922 25.88977789 31.796875 28.40625 C31.78683829 30.11783338 31.77771364 31.82942237 31.76953125 33.54101562 C31.74754181 37.72539906 31.71304908 41.90951314 31.671875 46.09375 C28.371875 46.09375 25.071875 46.09375 21.671875 46.09375 C21.642146 44.57237427 21.642146 44.57237427 21.61181641 43.02026367 C21.53574477 39.25731576 21.44703009 35.49475377 21.35449219 31.73217773 C21.31620882 30.10367451 21.28135476 28.47508691 21.25 26.84643555 C21.20433498 24.50538986 21.14634423 22.1649247 21.0859375 19.82421875 C21.07438629 19.09599411 21.06283508 18.36776947 21.05093384 17.61747742 C20.94308988 13.92413626 20.77303224 12.24548586 18.671875 9.09375 C15.26017899 8.03233346 13.3745327 7.82634756 10.01464844 9.10498047 C7.32051541 10.96836658 7.32051541 10.96836658 7.02832031 14.53955078 C6.99399601 15.95567022 6.98618924 17.37259446 7 18.7890625 C6.98087555 19.91113602 6.98087555 19.91113602 6.96136475 21.05587769 C6.92503029 23.44388679 6.92235544 25.83048854 6.921875 28.21875 C6.90029088 30.61362777 6.87187858 33.00829033 6.83953857 35.40304565 C6.82171907 36.89314634 6.81148664 38.38335992 6.80938721 39.87356567 C6.78038502 44.98523998 6.78038502 44.98523998 5.671875 46.09375 C2.371875 46.09375 -0.928125 46.09375 -4.328125 46.09375 C-4.658125 34.21375 -4.988125 22.33375 -5.328125 10.09375 C-9.73696127 7.88933187 -10.74176971 7.94716118 -15.328125 9.09375 C-17.308125 10.08375 -17.308125 10.08375 -19.328125 11.09375 C-19.328125 22.64375 -19.328125 34.19375 -19.328125 46.09375 C-22.628125 46.09375 -25.928125 46.09375 -29.328125 46.09375 C-29.352769 39.70337203 -29.37095817 33.31302148 -29.38305664 26.92260742 C-29.38809808 24.74682127 -29.39493107 22.57103853 -29.40356445 20.39526367 C-29.41563838 17.27521933 -29.42135505 14.15521962 -29.42578125 11.03515625 C-29.43094254 10.05599747 -29.43610382 9.07683868 -29.44142151 8.06800842 C-29.44149704 7.16715012 -29.44157257 6.26629181 -29.44165039 5.33813477 C-29.443871 4.54093521 -29.44609161 3.74373566 -29.44837952 2.92237854 C-29.328125 1.09375 -29.328125 1.09375 -28.328125 0.09375 C-26.32854136 0.05294217 -24.32767246 0.05120644 -22.328125 0.09375 C-21.998125 1.08375 -21.668125 2.07375 -21.328125 3.09375 C-19.966875 2.10375 -19.966875 2.10375 -18.578125 1.09375 C-13.01426037 -2.07267703 -5.9511182 -2.31654266 0 0 Z " fill="#000000" transform="translate(597.328125,206.90625)"/>
<path d="M0 0 C2.91517292 1.07401108 4.77810176 1.77810176 7 4 C6.6875 5.875 6.6875 5.875 6 8 C5.05659535 11.03282434 5.04739593 13.07863104 5.625 16.1875 C6.25393341 21.35495285 5.49860358 25.41635482 3 30 C-1.39213006 35.55545099 -6.26592552 36.88751669 -13 38 C-15.35227345 38.61288593 -17.66993148 39.30593704 -20 40 C-18.0509375 39.7525 -18.0509375 39.7525 -16.0625 39.5 C-1.71868059 37.96879165 -1.71868059 37.96879165 5 42 C8.02571989 46.29457017 8.55531409 49.81706852 8 55 C6.17018773 60.18446809 3.85908063 62.48047671 -1 65 C-10.3476013 68.25669725 -19.0080715 66.69311349 -28 63 C-29 62 -29 62 -29.25 59.625 C-29 57 -29 57 -27.8125 55.125 C-26 54 -26 54 -23.5 54.25 C-21.65723859 54.80282842 -19.82517122 55.39160959 -18 56 C-15.81488312 56.1196943 -13.62585853 56.17527453 -11.4375 56.1875 C-10.28121094 56.20167969 -9.12492187 56.21585937 -7.93359375 56.23046875 C-4.87683614 56.30987193 -4.87683614 56.30987193 -3 54 C-2.35232207 51.42938689 -2.35232207 51.42938689 -2 49 C-2.96039185 49.03927612 -2.96039185 49.03927612 -3.94018555 49.0793457 C-6.85570502 49.18361281 -9.77083198 49.24841753 -12.6875 49.3125 C-13.69490234 49.35439453 -14.70230469 49.39628906 -15.74023438 49.43945312 C-23.21383394 49.56277985 -23.21383394 49.56277985 -27.203125 46.70703125 C-29 44 -29 44 -29.0625 40.375 C-27.93524367 36.79430343 -27.22697915 35.76963373 -24 34 C-24.78375 33.154375 -25.5675 32.30875 -26.375 31.4375 C-29.99355151 27.0479503 -31.32021444 22.60877829 -30.8125 16.9375 C-29.88406519 11.59384187 -28.18683192 7.56867784 -23.875 4.125 C-18.85590967 1.1531702 -13.45949428 1.65666933 -7.81591797 1.92041016 C-5.87909248 2.00834922 -3.93879282 2.01042362 -2 2 C-1.34 1.34 -0.68 0.68 0 0 Z M-18.375 11.5625 C-20.51937508 14.77906263 -20.86500156 17.15254458 -21 21 C-20.07859242 24.37849445 -18.97544614 27.05056977 -16 29 C-12.54250051 29.66676878 -12.54250051 29.66676878 -9 29 C-6.29948671 26.85343816 -5.22003722 25.25443901 -4.62109375 21.83984375 C-4.41757436 17.90732391 -4.75449108 15.48119749 -6.5625 11.9375 C-8.95012671 9.71471326 -8.95012671 9.71471326 -12.5 9.4375 C-15.97423205 9.75046034 -15.97423205 9.75046034 -18.375 11.5625 Z " fill="#000000" transform="translate(372,204)"/>
<path d="M0 0 C1.28680664 -0.00386719 1.28680664 -0.00386719 2.59960938 -0.0078125 C3.48841797 -0.00007812 4.37722656 0.00765625 5.29296875 0.015625 C6.6087793 0.00402344 6.6087793 0.00402344 7.95117188 -0.0078125 C16.38365599 0.01741558 22.37905523 1.16421148 28.48046875 7.265625 C31.49712357 13.38102048 31.4809954 20.14633603 29.41796875 26.578125 C26.88965177 30.08514533 23.88717747 32.63359251 20.48046875 35.265625 C27.20201245 47.20051253 27.20201245 47.20051253 35.15234375 58.328125 C36.48046875 60.265625 36.48046875 60.265625 36.48046875 63.265625 C32.47136153 64.36317527 29.455681 64.58567654 25.48046875 63.265625 C20.31580132 58.0885425 17.17943894 50.72599473 13.9921875 44.234375 C13.59644531 43.4403125 13.20070312 42.64625 12.79296875 41.828125 C12.35404297 40.80912109 12.35404297 40.80912109 11.90625 39.76953125 C10.01156426 37.45921896 10.01156426 37.45921896 3.48046875 37.265625 C3.15046875 45.845625 2.82046875 54.425625 2.48046875 63.265625 C-0.81953125 63.265625 -4.11953125 63.265625 -7.51953125 63.265625 C-8.35546024 59.63086199 -8.64146825 56.2837172 -8.63305664 52.55737305 C-8.63298111 51.43658859 -8.63290558 50.31580414 -8.63282776 49.16105652 C-8.62766647 47.9619313 -8.62250519 46.76280609 -8.6171875 45.52734375 C-8.61577255 44.29143997 -8.6143576 43.05553619 -8.61289978 41.78218079 C-8.60825743 38.50904155 -8.59928436 35.23595213 -8.5881958 31.96282959 C-8.57793529 28.61780252 -8.57347756 25.27277327 -8.56835938 21.92773438 C-8.55734032 15.3736785 -8.54060961 8.81965582 -8.51953125 2.265625 C-5.48175337 0.66211639 -3.45318095 0.01008544 0 0 Z M2.48046875 9.265625 C2.48046875 15.535625 2.48046875 21.805625 2.48046875 28.265625 C11.20119425 28.45144714 11.20119425 28.45144714 18.48046875 25.265625 C20.52166822 22.78068652 20.51389303 20.99823076 20.91796875 17.765625 C20.82205249 14.13860905 20.82205249 14.13860905 18.16796875 11.890625 C14.361655 9.58913297 11.65731248 9.14644521 7.29296875 9.203125 C4.91078125 9.2340625 4.91078125 9.2340625 2.48046875 9.265625 Z " fill="#000000" transform="translate(232.51953125,189.734375)"/>
<path d="M0 0 C4.81970376 3.33298062 6.1679317 6.89856412 7.375 12.5625 C7.92962059 18.73412917 6.78012909 23.85193113 3.4375 29.0625 C-2.54463038 34.65449144 -7.20833133 36.09731333 -15.4375 36 C-17.7475 35.9175 -20.0575 35.835 -22.4375 35.75 C-22.4375 43.34 -22.4375 50.93 -22.4375 58.75 C-25.7375 58.75 -29.0375 58.75 -32.4375 58.75 C-32.4375 38.29 -32.4375 17.83 -32.4375 -3.25 C-22.10224026 -5.83381494 -9.42838734 -5.32164875 0 0 Z M-22.4375 5.75 C-22.4375 12.35 -22.4375 18.95 -22.4375 25.75 C-15.64478299 26.72038814 -12.33174635 26.7853604 -6.4375 23.75 C-3.80464182 20.87779108 -3.48802601 19.10368204 -2.9375 15.25 C-3.56927256 10.82759209 -4.98346298 9.48109904 -8.4375 6.75 C-11.58680893 5.70023036 -13.82564456 5.64868405 -17.125 5.6875 C-18.878125 5.708125 -20.63125 5.72875 -22.4375 5.75 Z " fill="#000000" transform="translate(479.4375,194.25)"/>
<path d="M0 0 C4.60902248 2.82204978 7.52512687 6.5853878 9.5625 11.5625 C11.20733483 19.99106193 11.71870422 29.16272892 7.265625 36.78125 C3.57873713 42.02651315 -0.0709557 45.21166496 -6.4375 46.5625 C-12.48565649 47.15367319 -18.14686228 46.74802082 -23.4375 43.5625 C-30.41284081 37.15941553 -31.87149252 31.35124935 -32.40234375 22.046875 C-32.47226504 15.11689778 -30.83321585 10.05714481 -26.4375 4.5625 C-19.37512599 -2.29597345 -9.24712934 -3.94257453 0 0 Z M-18.4375 9.5625 C-22.38977682 15.96791415 -22.5827567 23.51094139 -20.93359375 30.78515625 C-19.85317741 33.69301966 -18.49695833 35.50964815 -16.1875 37.5625 C-12.4386787 38.92570775 -10.26289862 38.65547103 -6.4375 37.5625 C-3.00396237 34.80074147 -1.16668036 32.87805722 -0.4375 28.5625 C-0.29435625 26.25293065 -0.21713259 23.93881127 -0.1875 21.625 C-0.16171875 20.41972656 -0.1359375 19.21445313 -0.109375 17.97265625 C-0.54363851 13.45941765 -2.08448814 10.91551186 -5.25 7.75 C-10.05386673 5.14218663 -14.37517242 6.15892824 -18.4375 9.5625 Z " fill="#000000" transform="translate(551.4375,207.4375)"/>
<path d="M0 0 C4.57130756 1.90736059 7.77583081 4.53889484 10.9375 8.3125 C14.41991238 17.12095485 15.09894254 26.49037637 12.15234375 35.62890625 C9.59006894 40.90111238 6.00106052 45.11063977 0.625 47.5 C-7.20860566 48.58049733 -13.69442111 48.66535836 -20.625 44.375 C-26.12264951 38.87735049 -28.15459494 32.00430766 -28.3125 24.375 C-28.24672897 16.40848432 -26.70453543 11.18996487 -21.5625 5.125 C-14.67824287 -0.58389615 -8.81674778 -1.2107162 0 0 Z M-16 13 C-19.15854623 19.17352219 -18.89340482 26.88159681 -16.9375 33.4375 C-15.55285193 36.65745991 -14.86274389 37.08805109 -11.6875 39.125 C-7.52110387 40.11363637 -5.81609731 39.82131917 -2 38 C1.70932554 35.52711631 1.92587149 34.25175868 3 30 C4.21635345 19.7523684 4.21635345 19.7523684 0.4375 10.5625 C-2.01112807 8.33280809 -3.12528297 7.97315365 -6.5 7.25 C-10.94520877 8.20254474 -12.90641022 9.69057837 -16 13 Z " fill="#000000" transform="translate(664,206)"/>
<path d="M0 0 C4.08961629 3.59390523 6.30407038 6.39987952 7.0625 11.8125 C7.14410753 14.46413055 7.17921195 17.08775473 7.16015625 19.73828125 C7.1587413 20.48587204 7.15732635 21.23346283 7.15586853 22.00370789 C7.15029764 24.37751365 7.1377506 26.75122303 7.125 29.125 C7.11998123 30.74023301 7.11541899 32.3554675 7.11132812 33.97070312 C7.10033775 37.91800555 7.08309332 41.86523647 7.0625 45.8125 C5.58343108 45.83939216 4.10422517 45.85884621 2.625 45.875 C1.38943359 45.89240234 1.38943359 45.89240234 0.12890625 45.91015625 C-1.9375 45.8125 -1.9375 45.8125 -2.9375 44.8125 C-3.06041928 42.32861726 -3.12354974 39.86818994 -3.1484375 37.3828125 C-3.17650763 35.85024976 -3.2051721 34.31769782 -3.234375 32.78515625 C-3.27565099 30.36019202 -3.3125225 27.93542893 -3.33886719 25.51025391 C-3.36645027 23.17567911 -3.412323 20.84203129 -3.4609375 18.5078125 C-3.46419037 17.78272491 -3.46744324 17.05763733 -3.47079468 16.31057739 C-3.56721319 12.34397954 -3.56721319 12.34397954 -5.29150391 8.85888672 C-7.96768214 7.15759631 -9.83593674 7.38679524 -12.9375 7.8125 C-16.20847154 9.24439586 -16.20847154 9.24439586 -18.9375 11.8125 C-19.55975545 14.69067714 -19.77838798 16.76230596 -19.7421875 19.640625 C-19.75589386 20.38963074 -19.76960022 21.13863647 -19.78372192 21.91033936 C-19.82101633 24.29500424 -19.8173083 26.67758496 -19.8125 29.0625 C-19.83062753 30.68232421 -19.85143042 32.30212084 -19.875 33.921875 C-19.92684434 37.88576578 -19.94193141 41.84828878 -19.9375 45.8125 C-23.2375 45.8125 -26.5375 45.8125 -29.9375 45.8125 C-29.962144 39.42212203 -29.98033317 33.03177148 -29.99243164 26.64135742 C-29.99747308 24.46557127 -30.00430607 22.28978853 -30.01293945 20.11401367 C-30.02501338 16.99396933 -30.03073005 13.87396962 -30.03515625 10.75390625 C-30.04031754 9.77474747 -30.04547882 8.79558868 -30.05079651 7.78675842 C-30.05087204 6.88590012 -30.05094757 5.98504181 -30.05102539 5.05688477 C-30.053246 4.25968521 -30.05546661 3.46248566 -30.05775452 2.64112854 C-29.9375 0.8125 -29.9375 0.8125 -28.9375 -0.1875 C-23.52573529 -0.65808824 -23.52573529 -0.65808824 -21.0625 1.3125 C-20.69125 1.8075 -20.32 2.3025 -19.9375 2.8125 C-19.504375 2.338125 -19.07125 1.86375 -18.625 1.375 C-14.06719192 -2.84519266 -5.41539927 -2.18920396 0 0 Z " fill="#000000" transform="translate(326.9375,207.1875)"/>
<path d="M0 0 C0.9075 0.495 1.815 0.99 2.75 1.5 C1.875 8.25 1.875 8.25 0.75 10.5 C-1.41874252 9.99396008 -3.24967627 9.50016187 -5.25 8.5 C-6.62342831 8.4310528 -8.00002102 8.41532292 -9.375 8.4375 C-10.65375 8.458125 -11.9325 8.47875 -13.25 8.5 C-13.58 10.15 -13.91 11.8 -14.25 13.5 C-13.693125 13.80292969 -13.13625 14.10585937 -12.5625 14.41796875 C-10.11510185 15.76155726 -7.68168104 17.12818612 -5.25 18.5 C-4.48816406 18.91894531 -3.72632813 19.33789062 -2.94140625 19.76953125 C0.11197814 21.5343314 2.31231231 22.82523148 4.25 25.8125 C5.48058899 32.42691585 5.23863517 36.68560805 1.75 42.5 C1.09 42.5 0.43 42.5 -0.25 42.5 C-0.25 43.16 -0.25 43.82 -0.25 44.5 C-7.95099388 47.83015951 -16.4893751 47.36805703 -24.25 44.5 C-24.58 44.17 -24.91 43.84 -25.25 43.5 C-25.07364548 40.80917128 -24.63164079 38.17148554 -24.25 35.5 C-20.26976495 34.39437915 -18.83342369 34.65709639 -15.25 36.5 C-12.58658105 36.97212821 -9.94501706 37.23049829 -7.25 37.5 C-6.92 35.19 -6.59 32.88 -6.25 30.5 C-6.83007812 30.11328125 -7.41015625 29.7265625 -8.0078125 29.328125 C-9.62770569 28.24819621 -11.24612724 27.16605757 -12.86328125 26.08203125 C-14.74282968 24.83617672 -16.64826931 23.62937948 -18.5625 22.4375 C-22.41676382 19.65884469 -24.70395908 17.17452549 -26.1875 12.625 C-26.27135002 8.43249898 -25.38796599 6.10781761 -23.25 2.5 C-16.72920932 -2.91086886 -7.75961958 -3.29626116 0 0 Z " fill="#000000" transform="translate(707.25,207.5)"/>
<path d="M0 0 C0.9075 0.495 1.815 0.99 2.75 1.5 C1.875 8.25 1.875 8.25 0.75 10.5 C-1.27687092 10.00575183 -3.285228 9.4895195 -5.28515625 8.89453125 C-5.95417969 8.70246094 -6.62320312 8.51039063 -7.3125 8.3125 C-7.98410156 8.11269531 -8.65570313 7.91289062 -9.34765625 7.70703125 C-11.58203261 7.25807527 -11.58203261 7.25807527 -14.25 9.5 C-14.32623063 11.88137344 -14.32623063 11.88137344 -13.25 14.5 C-10.77635013 16.05857653 -8.51048604 17.29492646 -5.875 18.5 C2.70476092 22.46733306 2.70476092 22.46733306 4.75 27.5 C5.11328125 30.03515625 5.11328125 30.03515625 5.0625 32.5625 C5.05863281 33.39910156 5.05476563 34.23570312 5.05078125 35.09765625 C4.56619519 38.96805144 3.2789817 40.98571224 0.5 43.6875 C-4.46120272 46.95738361 -10.42202692 47.13005114 -16.25 46.5 C-19.32403485 45.67770763 -22.28537095 44.6529113 -25.25 43.5 C-24.92 40.86 -24.59 38.22 -24.25 35.5 C-19.73915663 34.24698795 -19.73915663 34.24698795 -17.4375 35.4375 C-14.02313125 37.09590768 -11.01940954 36.6853808 -7.25 36.5 C-5.99323161 35.45296435 -5.99323161 35.45296435 -6 33.125 C-6.30258967 29.94780849 -6.84422341 29.48989836 -9.25 27.5 C-10.83224413 26.70479297 -12.43939506 25.95808265 -14.0625 25.25 C-18.91253667 22.8640376 -22.74860215 20.42432048 -25.25 15.5 C-26.13433437 11.17493612 -25.72585884 7.71608371 -24.125 3.625 C-18.21820733 -3.06936502 -7.92645532 -3.39013364 0 0 Z " fill="#000000" transform="translate(409.25,207.5)"/>
<path d="M0 0 C0.33 0.99 0.66 1.98 1 3 C1.433125 2.525625 1.86625 2.05125 2.3125 1.5625 C5.46036082 -1.35218595 8.61197787 -1.11044732 12.6875 -1.0625 C13.68136719 -1.05347656 14.67523437 -1.04445312 15.69921875 -1.03515625 C16.83810547 -1.01775391 16.83810547 -1.01775391 18 -1 C18.62109375 0.796875 18.62109375 0.796875 19 3 C17.0625 6.25 17.0625 6.25 15 9 C13.96875 8.731875 12.9375 8.46375 11.875 8.1875 C7.68699973 7.9704859 7.68699973 7.9704859 4.625 10.25 C0.72946922 14.33103225 0.84481756 17.39689125 0.68359375 22.85546875 C0.66281265 23.51710526 0.64203156 24.17874176 0.62062073 24.86042786 C0.55535273 26.96934852 0.49634656 29.07839135 0.4375 31.1875 C0.39429311 32.61915315 0.35067812 34.05079404 0.30664062 35.48242188 C0.19969494 38.98815154 0.09836359 42.49401786 0 46 C-3.3 46 -6.6 46 -10 46 C-10 31.15 -10 16.3 -10 1 C-3 -1 -3 -1 0 0 Z " fill="#000000" transform="translate(500,207)"/>
<path d="M0 0 C2.47923801 -0.02685095 4.9581884 -0.04676547 7.4375 -0.0625 C8.14455078 -0.07087891 8.85160156 -0.07925781 9.58007812 -0.08789062 C11.38693559 -0.09653588 13.19387603 -0.05220011 15 0 C16 1 16 1 16.08229065 2.82862854 C16.05231239 4.02442787 16.05231239 4.02442787 16.02172852 5.24438477 C15.99158409 6.59567223 15.99158409 6.59567223 15.96083069 7.97425842 C15.92027809 9.4429966 15.92027809 9.4429966 15.87890625 10.94140625 C15.85529526 11.93881332 15.83168427 12.9362204 15.80735779 13.96385193 C15.73051123 17.16353862 15.64657771 20.36299592 15.5625 23.5625 C15.50930031 25.72590007 15.4565598 27.88931148 15.40429688 30.05273438 C15.27486781 35.36863607 15.13908069 40.68434242 15 46 C12.03 46 9.06 46 6 46 C6 33.46 6 20.92 6 8 C4.02 8 2.04 8 0 8 C0 5.36 0 2.72 0 0 Z " fill="#010101" transform="translate(271,207)"/>
<path d="M0 0 C0.66 0.33 1.32 0.66 2 1 C-0.47900161 3.96311641 -2.75990657 4.76517495 -6.4375 5.8125 C-7.58605469 6.14378906 -8.73460937 6.47507812 -9.91796875 6.81640625 C-10.56040527 6.99961426 -11.2028418 7.18282227 -11.86474609 7.37158203 C-14.25190301 8.07413656 -16.6190913 8.82894589 -18.98828125 9.58984375 C-20.74218002 10.14325288 -22.49608625 10.69663834 -24.25 11.25 C-25.49027954 11.65569214 -25.49027954 11.65569214 -26.75561523 12.06958008 C-32.37021659 13.80968645 -37.12216343 14.25966346 -43 14 C-43.33 13.34 -43.66 12.68 -44 12 C-43.195625 11.86464844 -42.39125 11.72929687 -41.5625 11.58984375 C-33.01072776 10.02389423 -24.71973875 7.880001 -16.375 5.4375 C-15.33214844 5.13255615 -14.28929687 4.8276123 -13.21484375 4.51342773 C-7.6808571 2.89033322 -7.6808571 2.89033322 -2.29931641 0.83618164 C-1.16115479 0.42227173 -1.16115479 0.42227173 0 0 Z " fill="#12120D" transform="translate(326,419)"/>
<path d="M0 0 C2.9375 0.75 2.9375 0.75 4.9375 2.75 C5.375 5.125 5.375 5.125 4.9375 7.75 C2.4375 10.0625 2.4375 10.0625 -0.0625 11.75 C-4.9375 9.875 -4.9375 9.875 -6.0625 8.75 C-6.3125 5.3125 -6.3125 5.3125 -6.0625 1.75 C-3.0625 -0.25 -3.0625 -0.25 0 0 Z " fill="#000000" transform="translate(283.0625,190.25)"/>
<path d="M0 0 C0 0.66 0 1.32 0 2 C-0.89460938 2.18175781 -1.78921875 2.36351563 -2.7109375 2.55078125 C-9.17731972 3.8950718 -15.52788874 5.32441474 -21.81640625 7.3515625 C-24.19101013 8.05672215 -26.56593679 8.54655413 -29 9 C-25.19965081 3.29947622 -17.14788861 2.13226828 -10.6875 0.75 C-7.08667855 0.09530519 -3.66954398 -0.19313389 0 0 Z " fill="#131313" transform="translate(226,87)"/>
<path d="M0 0 C26.26666667 3.13333333 26.26666667 3.13333333 30 5 C29.67 5.99 29.34 6.98 29 8 C28.04609375 7.69964844 27.0921875 7.39929688 26.109375 7.08984375 C20.73492314 5.55138661 15.20937958 4.94196521 9.67578125 4.23242188 C8.85980469 4.11576172 8.04382813 3.99910156 7.203125 3.87890625 C6.46739258 3.7816626 5.73166016 3.68441895 4.97363281 3.58422852 C2.61342596 2.88556758 1.58237807 1.84808521 0 0 Z " fill="#141515" transform="translate(265,3)"/>
<path d="M0 0 C0.33 0.66 0.66 1.32 1 2 C-1.2639961 4.46717524 -3.59060244 6.10134139 -6.5 7.75 C-7.2734375 8.19859375 -8.046875 8.6471875 -8.84375 9.109375 C-11 10 -11 10 -14 9 C-9.7045025 5.25876024 -5.00099548 2.65848126 0 0 Z " fill="#0B0C07" transform="translate(352,406)"/>
<path d="M0 0 C-2.61331914 1.41554787 -5.30718129 2.58131312 -8.0625 3.6875 C-8.73410156 3.95949219 -9.40570313 4.23148437 -10.09765625 4.51171875 C-12 5 -12 5 -15 4 C-5.9375 -1.69642857 -5.9375 -1.69642857 0 0 Z " fill="#0C0C0C" transform="translate(212,91)"/>
<path d="M0 0 C1.79206547 0.14084796 3.58364917 0.28783701 5.375 0.4375 C6.87160156 0.55931641 6.87160156 0.55931641 8.3984375 0.68359375 C11 1 11 1 13 2 C12.67 2.99 12.34 3.98 12 5 C7.89100419 3.87204037 3.92438786 2.66489182 0 1 C0 0.67 0 0.34 0 0 Z " fill="#0B0B0C" transform="translate(282,6)"/>
<path d="M0 0 C0.33 0.99 0.66 1.98 1 3 C-0.98 4.32 -2.96 5.64 -5 7 C-5.66 6.67 -6.32 6.34 -7 6 C-2.25 1.125 -2.25 1.125 0 0 Z " fill="#0C0C0C" transform="translate(147,71)"/>
</svg>